<?xml version="1.0" encoding="UTF-8"?>
<svg id="Layer_1" data-name="Layer 1" xmlns="http://www.w3.org/2000/svg" viewBox="0 0 633.85 235.2">
  <defs>
    <style>
      .cls-1 {
        fill: #231f20;
      }
    </style>
  </defs>
  <path class="cls-1" d="M194.66,163.46v-33.58h0c3.97,28.71,10.02,36.97,29.27,36.97,23.37,0,27.8-11,27.8-22.61,0-32.69-56.97-21.54-56.97-56.36,0-16.34,12.53-26.73,29.94-26.73,11.91,0,20.31,4.89,24.44,7.64v34.22h0c-3.67-25.96-5.5-36.97-24.44-36.97s-23.67,9.01-23.67,20.77c0,31.01,56.82,19.09,56.82,55.75,0,17.41-12.53,29.17-32.99,29.17-12.22,0-24.08-4.91-30.19-8.28Z"/>
  <path class="cls-1" d="M254.02,169.9c10.38,0,13.44-4.28,13.44-14.05v-78.81c0-9.77-3.05-14.05-13.44-14.05h33.3c-10.54,0-13.44,4.28-13.44,14.05v78.81c0,9.77,2.9,14.05,13.44,14.05h-33.3Z"/>
  <path class="cls-1" d="M367.05,116.44c0,33.75-14.51,53.46-39.25,53.46h-40.48c10.38,0,13.44-4.28,13.44-14.05v-78.81c0-9.77-3.06-14.05-13.44-14.05h40.48c24.74,0,39.25,19.7,39.25,53.46ZM327.8,165.93c24.28,0,32.23-18.33,32.23-49.49s-7.95-49.48-32.23-49.48h-7.18c-10.54,0-13.44,1.22-13.44,9.47v80.03c0,8.25,2.9,9.47,13.44,9.47h7.18Z"/>
  <path class="cls-1" d="M425.73,131.57l-.03,38.33h-64.76c10.38,0,13.44-4.28,13.44-14.05v-78.81c0-9.77-3.05-14.05-13.44-14.05h64.76l.03,29.17h0c-2.6-19.85-4.92-25.2-14.85-25.2h-16.65c-10.54,0-13.44,1.22-13.44,9.47v33.45h17.11c9.77,0,14.66-3.97,14.66-17.72h0v39.4h0c0-13.75-4.89-17.72-14.66-17.72h-17.11v42.61c0,8.25,2.9,9.47,13.44,9.47h16.65c9.93.01,12.54-11.6,14.85-34.36h0Z"/>
  <path class="cls-1" d="M505.41,116.44c0,33.75-14.51,53.46-39.25,53.46h-40.48c10.39,0,13.44-4.28,13.44-14.05v-78.81c0-9.77-3.05-14.05-13.44-14.05h40.48c24.74,0,39.25,19.7,39.25,53.46ZM466.16,165.93c24.28,0,32.22-18.33,32.22-49.49s-7.94-49.48-32.22-49.48h-7.18c-10.54,0-13.44,1.22-13.44,9.47v80.03c0,8.25,2.9,9.47,13.44,9.47h7.18Z"/>
  <path class="cls-1" d="M188.23,138.31c0,20.73-14.32,33.07-36.12,33.07-12.8,0-17.19-3.72-23.28-7.08v-34.62h0c5.78,23.15,2.71,36.82,22.21,36.82,21.95,0,30.17-10.06,30.17-27.13,0-14.48-5.79-24.38-22.1-24.38-2.74,0-5.64.3-18.9,2.29v-3.05c25.6-3.96,36.42-13.87,36.42-30.17,0-11.89-5.64-18.13-21.64-18.13-20.73,0-22.52,10.98-26.18,36.89h0l-.03-34.14c4.11-2.74,12.5-7.62,25.91-7.62,16.16,0,28.96,7.16,28.96,22.86,0,11.73-7.47,21.94-23.32,28.19,19.2.3,27.89,10.06,27.89,26.21Z"/>
</svg>