<?xml version="1.0" encoding="UTF-8"?>
<svg id="Layer_1" data-name="Layer 1" xmlns="http://www.w3.org/2000/svg" viewBox="0 0 633.85 211.28">
  <defs>
    <style>
      .cls-1 {
        fill: #231f20;
      }
    </style>
  </defs>
  <path class="cls-1" d="M159.74,164.66v-39.85h0c4.71,34.07,11.9,43.87,34.73,43.87,27.73,0,32.99-13.05,32.99-26.82,0-38.79-67.61-25.55-67.61-66.88,0-19.39,14.86-31.72,35.53-31.72,14.13,0,24.1,5.8,29,9.06v40.6h0c-4.35-30.81-6.53-43.87-29-43.87s-28.09,10.69-28.09,24.65c0,36.79,67.42,22.65,67.42,66.15,0,20.66-14.86,34.62-39.14,34.62-14.5,0-28.57-5.83-35.82-9.82Z"/>
  <path class="cls-1" d="M230.19,172.3c12.32,0,15.95-5.08,15.95-16.68V62.11c0-11.6-3.62-16.68-15.95-16.68h39.51c-12.51,0-15.95,5.08-15.95,16.68v93.52c0,11.6,3.45,16.68,15.95,16.68h-39.51Z"/>
  <path class="cls-1" d="M364.31,108.87c0,40.05-17.22,63.43-46.58,63.43h-48.03c12.32,0,15.95-5.08,15.95-16.68V62.11c0-11.6-3.63-16.68-15.95-16.68h48.03c29.36,0,46.58,23.38,46.58,63.43ZM317.73,167.59c28.82,0,38.24-21.75,38.24-58.72s-9.43-58.72-38.24-58.72h-8.52c-12.51,0-15.95,1.45-15.95,11.24v94.97c0,9.79,3.45,11.24,15.95,11.24h8.52Z"/>
  <path class="cls-1" d="M433.94,126.82l-.04,45.48h-76.84c12.32,0,15.95-5.08,15.95-16.68V62.11c0-11.6-3.62-16.68-15.95-16.68h76.84l.04,34.62h0c-3.08-23.56-5.83-29.9-17.62-29.9h-19.75c-12.51,0-15.95,1.45-15.95,11.24v39.69h20.3c11.6,0,17.4-4.71,17.4-21.02h0v46.76h0c0-16.31-5.8-21.02-17.4-21.02h-20.3v50.56c0,9.79,3.45,11.24,15.95,11.24h19.75c11.78.01,14.88-13.76,17.62-40.77h0Z"/>
  <path class="cls-1" d="M528.48,108.87c0,40.05-17.22,63.43-46.57,63.43h-48.03c12.33,0,15.95-5.08,15.95-16.68V62.11c0-11.6-3.62-16.68-15.95-16.68h48.03c29.36,0,46.57,23.38,46.57,63.43ZM481.91,167.59c28.82,0,38.24-21.75,38.24-58.72s-9.42-58.72-38.24-58.72h-8.52c-12.51,0-15.95,1.45-15.95,11.24v94.97c0,9.79,3.44,11.24,15.95,11.24h8.52Z"/>
  <path class="cls-1" d="M125.61,115.37c.6.49,1.32.75,2.09.99.42.14.84.27,1.26.43.23.08.49.26.72.31s.56-.02.79-.04c.27-.02.53-.04.8-.07.52-.05,1.04-.13,1.55-.22.34-.06.73-.13,1.01-.34.85-.64,2.05-.51,3.09-.73,1.12-.24,2.22-.64,3.1-1.38,1.22-1.02,1.89-2.56,2.16-4.12.27-1.56.16-3.16.06-4.74-.08-1.13-.15-2.26-.4-3.37-.54-2.38-1.85-4.49-3.42-6.32-.75-.88-1.58-1.66-2.41-2.46-.42-.4-.84-.8-1.19-1.27s-.58-.93-.93-1.37c-.72-.9-1.66-1.59-2.59-2.26-.14-.1-.28-.2-.42-.3-1.3-.94-2.45-2.03-3.41-3.31s-1.61-2.84-2.12-4.38c-.21-.65-.31-1.09-.27-1.31.04-1.78,1.23-3.98,3.58-6.62.69-.75,2.39-1.56,5.11-2.46.24-.1.47-.2.71-.29.67-.28,1.33-.56,1.98-.88.32-.15.69-.3.96-.54.06-.05.06-.1.1-.15.1-.14.31-.25.45-.36.16-.13.32-.27.47-.41.61-.56,1.13-1.22,1.56-1.93.38-.62.88-1.15,1.16-1.84.18-.42.3-.98.38-1.68s.2-1.29.36-1.75c.31-1.24.18-2.6-.4-4.07-.17-.42-.35-.84-.58-1.23-.22-.36-.48-.57-.78-.86-.65-.62-1.38-1.14-2.17-1.56-.98-.52-1.97-.57-3.04-.31-.92.22-1.82.5-2.72.79-1.73.57-3.55,1.23-5.03,2.33-.76.57-1.46,1.22-2.24,1.75-.63.43-1.27.53-1.81,1.14-.67.75-1.33,1.7-2.16,2.26s-1.48,1.15-2.13,1.9c-.9,1.02-1.8,2.06-2.47,3.25-.31.56-.49,1.17-.85,1.7-.4.59-.75,1.21-1.13,1.81-.37.6-.8,1.27-1.34,1.73-.46.39-1.05.61-1.65.62s-1.09-.2-1.61-.43c-.96-.42-1.73-1.13-2.24-2.04-.19-.34-.35-.71-.47-1.08-.31-.93.07-2.46,1.14-4.58.99-1.97,2.02-3.93,3.23-5.78.52-.66.94-1.38,1.52-2,.5-.55,1.14-.9,1.69-1.39.47-.43.83-1.02,1.28-1.49.94-1,2.01-1.88,3.13-2.66,2.24-1.56,4.69-2.82,7.17-3.94.76-.34,1.56-.57,2.36-.8,4.09-1.14,6.79-1.74,8.12-1.81,1.33-.07,2.7.33,4.13,1.21,1.45.81,2.97,1.7,4.13,2.91.36.38.58.79.84,1.23.5.84,1.06,1.63,1.73,2.35.18.19.36.38.55.56.17.16.26.38.38.58.26.46.51.93.75,1.4.47.95.9,1.92,1.2,2.93.03.09.05.18.08.27.36,1.3.46,2.68.32,4.02-.07.66-.35,1.31-.4,1.96-.05.56.09,1.19-.15,1.72-.05.11-.11.18-.13.3-.04.16-.07.32-.11.48-.08.31-.17.62-.28.91-.31.79-.79,1.5-1.28,2.2-.29.42-.53.85-.81,1.27-.24.36-.51.7-.79,1.02-.62.71-1.32,1.33-2.07,1.89-.85.64-1.77,1.2-2.72,1.69-1.09.57-2.21,1.06-3.36,1.49-.06.02-.12.05-.18.07-1.84.71-2.97,1.39-3.38,2.04-.34.53.28,1.31,1.86,2.34,2.36,1.51,4.61,3.46,6.75,5.87,2.45,2.41,4.28,5.28,5.48,8.62.53,1.16,1.15,2.33,1.57,3.53.29.82.51,1.67.73,2.52.16.61.31,1.17.39,1.79.08.67.17,1.34.25,2,.06.45.11.91.1,1.37-.01.5-.11.99-.22,1.47-.11.5-.07,1.03-.09,1.53-.03.53-.15,1.06-.31,1.57-.08.25-.18.5-.28.75-.08.19-.21.35-.25.55-.24,1.08-.47,2.09-1.01,3.07-.31.56-.76,1.04-1.08,1.58-.26.43-.52.86-.81,1.27-.59.83-1.27,1.59-2.01,2.29-1.61,1.51-3.52,2.66-5.53,3.54-.77.33-1.55.63-2.34.89-2.18.72-4.49,1.02-6.78,1.06-1.33.03-2.66-.04-3.99-.16s-2.36-.46-3.56-.9c-2.21-.81-4.42-1.83-6.13-3.49-.81-.79-1.49-1.69-2.16-2.6-.47-.62-.93-1.25-1.4-1.87-.41-.55-.93-1.09-1.2-1.71-.58-1.32-1.13-2.75-1.05-4.22.08-1.45,1.22-2.82,2.42-3.59,1.04-.66,2.37-.81,3.51-.35.58.24,1.29.87,1.6,1.41.2.35.46.68.78.93.34.26.76.33,1.07.62.75.68,1.48,1.4,2.02,2.26.59.94.93,2.02,1.62,2.9.16.21.34.39.54.55Z"/>
</svg>